PathFileType	3	(X/Y/Z)	E:\ViconData\BIOM9541 2025\Week 7\Wed1100\Hanif deep squat 7-5 Squat 01.trc
DataRate	CameraRate	NumFrames	NumMarkers	Units	OrigDataRate	OrigDataStartFrame	OrigNumFrames
200.0	200.0	11	19	mm	200.0	1	1840	
Frame#	Time	C7			CLAV			RBAK			LASI			RASI			LPSI			RPSI			LTHI			LKNE			LTIB			LANK			LHEE			LTOE			RTHI			RKNE			RTIB			RANK			RHEE			RTOE			
		X1	Y1	Z1	X2	Y2	Z2	X3	Y3	Z3	X4	Y4	Z4	X5	Y5	Z5	X6	Y6	Z6	X7	Y7	Z7	X8	Y8	Z8	X9	Y9	Z9	X10	Y10	Z10	X11	Y11	Z11	X12	Y12	Z12	X13	Y13	Z13	X14	Y14	Z14	X15	Y15	Z15	X16	Y16	Z16	X17	Y17	Z17	X18	Y18	Z18	X19	Y19	Z19	
1	0	358.70813	1313.0431	-1212.7136	204.10083	1253.11	-1202.6344	367.64481	1230.8695	-1362.8949	186.18614	884.34265	-1086.4895	173.06161	894.60248	-1347.267	356.97906	932.80408	-1177.1737	354.07129	931.72784	-1252.0524	246.58211	552.36841	-1019.4418	274.35052	418.75424	-1028.1273	296.42831	219.25917	-992.91541	303.91513	62.211319	-1002.1891	325.4769	46.539658	-1061.4628	158.33006	39.170456	-972.56293	226.49374	729.36523	-1411.4427	275.3334	420.91895	-1412.6202	291.20001	333.26694	-1435.3468	304.41962	74.049728	-1430.2749	326.09222	49.796967	-1366.48	160.15829	39.091507	-1459.7838
2	0.005	358.78763	1313.0392	-1212.7047	204.52559	1252.6255	-1202.6199	367.73721	1230.8762	-1362.8738	186.26859	884.28754	-1086.472	173.19095	894.66492	-1347.2762	357.0134	932.86047	-1176.8572	354.07095	931.44861	-1252.0171	246.66428	552.27319	-1019.4568	274.42264	418.68665	-1028.1569	296.48416	219.19301	-992.93176	303.9101	62.167198	-1002.1298	325.49564	46.609947	-1061.4447	158.36353	39.145348	-972.56348	226.61084	729.41522	-1411.4369	275.3812	420.98096	-1412.6234	291.23193	333.31537	-1435.3639	304.41251	74.174911	-1430.2695	326.06439	49.790291	-1366.4131	160.15833	39.336491	-1460.0425
3	0.01	358.86066	1313.0281	-1212.6648	204.61305	1252.575	-1202.6566	367.83328	1230.8635	-1362.8457	186.33557	884.28326	-1086.4458	173.33125	894.66656	-1347.2767	357.10846	932.87512	-1176.8595	354.16589	931.33185	-1252.0159	246.76906	552.24384	-1019.5168	274.5058	418.67447	-1028.1693	296.50305	219.19656	-992.90454	303.94128	62.137295	-1002.1235	325.53799	46.602379	-1061.4257	158.3708	39.140633	-972.60187	227.14673	729.6001	-1411.1511	275.42627	420.96396	-1412.639	291.27542	333.30725	-1435.3811	304.42822	74.17218	-1430.2797	326.07071	49.790997	-1366.4417	160.3243	39.175114	-1460.7609
4	0.015	358.94177	1313.0039	-1212.6431	204.67474	1252.5809	-1202.6486	367.91318	1230.8474	-1362.8123	186.43886	884.30133	-1086.4574	173.50641	894.64355	-1347.2716	357.20673	932.8103	-1176.9064	354.38034	931.56293	-1251.9811	246.83578	552.32574	-1019.4811	274.57065	418.71725	-1028.1511	296.56812	219.23575	-992.89526	303.98477	62.153145	-1002.1502	325.57065	46.530811	-1061.4054	158.36186	39.11459	-972.59784	226.92067	729.44562	-1411.5522	275.50223	420.88202	-1412.6327	291.34363	333.23853	-1435.3931	304.48441	74.096275	-1430.2872	326.11411	49.770885	-1366.5027	160.32954	38.994232	-1460.62
5	0.02	359.00021	1312.9904	-1212.5925	204.31671	1252.9602	-1202.7301	367.99435	1230.7992	-1362.775	186.51201	884.31323	-1086.4293	173.66376	894.58026	-1347.2654	357.3512	932.74146	-1177.11	354.55396	931.66217	-1251.9946	246.89751	552.36731	-1019.4658	274.6348	418.77301	-1028.1348	296.60281	219.25694	-992.88098	304.01578	62.163589	-1002.1796	325.58838	46.472103	-1061.3762	158.33867	39.126236	-972.59351	227.07384	729.41052	-1411.5355	275.56235	420.83578	-1412.6328	291.39441	333.17963	-1435.4081	304.52649	73.975052	-1430.3005	326.1398	49.747112	-1366.5426	160.32956	38.901192	-1460.5222
6	0.025	359.08231	1312.9756	-1212.564	204.81358	1252.6321	-1202.5792	368.06165	1230.792	-1362.7312	186.61523	884.2995	-1086.4114	173.79312	894.60895	-1347.2778	357.45065	932.69965	-1177.1074	354.68039	931.6593	-1252.0334	246.9613	552.35596	-1019.4612	274.71286	418.75092	-1028.176	296.62708	219.2598	-992.86627	304.00299	62.1665	-1002.1877	325.57272	46.47348	-1061.3569	158.33623	39.108673	-972.56738	227.20468	729.42719	-1411.5425	275.58978	420.83112	-1412.6305	291.4299	333.17249	-1435.4155	304.53204	73.930069	-1430.3246	326.15213	49.748322	-1366.519	160.31523	38.897976	-1460.4803
7	0.03	359.1601	1312.9563	-1212.5671	204.89174	1252.6349	-1202.5049	368.13089	1230.7898	-1362.722	186.72694	884.26074	-1086.4086	173.9254	894.64874	-1347.3287	357.53397	932.71082	-1176.9872	354.71378	931.52594	-1251.9918	247.08128	552.30658	-1019.5118	274.7576	418.72574	-1028.1604	296.64996	219.21756	-992.86279	304.00912	62.164124	-1002.1592	325.58786	46.507778	-1061.3413	158.36183	39.132607	-972.54071	227.34604	729.44476	-1411.5288	275.65842	420.86905	-1412.6292	291.48825	333.22452	-1435.4486	304.53342	73.934219	-1430.3568	326.13708	49.763256	-1366.4384	160.31749	38.957417	-1460.5044
8	0.035	359.24695	1312.9238	-1212.5992	204.98462	1252.5732	-1202.5044	368.20865	1230.776	-1362.709	186.82651	884.23041	-1086.3723	174.07368	894.66748	-1347.3789	357.62469	932.72937	-1176.8834	354.7598	931.35504	-1251.9893	247.16568	552.28613	-1019.5395	274.82538	418.70972	-1028.1924	296.69235	219.18275	-992.87738	303.99387	62.154003	-1002.1277	325.60992	46.529484	-1061.3469	158.38043	39.109413	-972.57263	227.47192	729.45074	-1411.5575	275.72699	420.87387	-1412.6332	291.5354	333.24878	-1435.4766	304.53229	73.971016	-1430.3667	326.16299	49.742561	-1366.4706	160.35587	39.039993	-1460.6284
9	0.04	359.32953	1312.8931	-1212.6486	205.06207	1252.5538	-1202.5297	368.30228	1230.7241	-1362.6945	186.92746	884.25928	-1086.3824	174.25668	894.61682	-1347.4205	357.73758	932.71106	-1176.9679	354.91574	931.35767	-1252.0176	247.23901	552.29297	-1019.5724	274.84927	418.73413	-1028.2146	296.6853	219.2291	-992.862	303.99997	62.149399	-1002.1064	325.43372	46.349697	-1061.1414	158.41489	39.094219	-972.61908	227.63126	729.43701	-1411.5846	275.82465	420.82373	-1412.6545	291.62323	333.19339	-1435.5104	304.56253	73.924232	-1430.3854	326.16925	49.720337	-1366.4631	160.39285	39.017807	-1460.6509
10	0.045	359.42413	1312.896	-1212.7145	205.16862	1252.4878	-1202.6036	367.90039	1230.0906	-1361.8762	187.00879	884.29449	-1086.3992	174.41437	894.54663	-1347.4509	357.84216	932.68542	-1177.153	355.07739	931.38422	-1252.0548	247.2984	552.33612	-1019.5639	274.86844	418.74579	-1028.22	296.67337	219.23093	-992.88379	304.07416	62.136776	-1002.1546	325.70035	46.482952	-1061.3894	158.44911	39.065449	-972.67529	227.7834	729.38715	-1411.611	275.94141	420.74905	-1412.6672	291.73837	333.13162	-1435.5309	304.61099	73.859642	-1430.4026	326.18484	49.699501	-1366.5084	160.40681	38.946125	-1460.653
11	0.05	359.50165	1312.8636	-1212.7622	205.24347	1252.4548	-1202.5782	367.979	1230.0898	-1361.9039	187.10344	884.2915	-1086.4183	174.56328	894.55896	-1347.4907	357.92984	932.68713	-1177.0625	355.18732	931.28662	-1252.0889	247.34027	552.34656	-1019.555	274.9202	418.77228	-1028.2482	296.71503	219.24615	-992.91211	304.09808	62.115086	-1002.1807	325.5257	46.349121	-1061.2361	158.46547	39.038673	-972.69318	228.20885	729.43701	-1411.3086	276.01611	420.7132	-1412.6724	291.80597	333.15103	-1435.5652	304.60159	73.860352	-1430.4023	326.19412	49.683781	-1366.5187	160.40898	38.897839	-1460.6377
